<?xml version="1.0" encoding="UTF-8"?><svg id="Layer_2" xmlns="http://www.w3.org/2000/svg" viewBox="0 0 170.94 168.47"><defs><style>.cls-1{fill:#d4145a;}.cls-2{fill:#ed1e79;}.cls-3{fill:#ffa4c8;}</style></defs><g id="Layer_1-2"><path class="cls-2" d="M149.4,0H22.54C10.09,0,0,10.09,0,22.54v90.12s0-4,0-4c0,0,4.27,11.09,9.98,11.09h133.89c9.28,0,6.81-7.53,6.81-16.81h0c0-9.28-7.53-16.81-16.81-16.81H52.77c-.35,0-.63-.28-.63-.63v-35.71c0-6.73,5.46-12.19,12.19-12.19h76.56c14.48,0,16.01,10.83,22.3,25.4l7.71,20.65c.02-.39.03-.79.03-1.19V21.54c0-11.9-9.64-21.54-21.54-21.54Z"/><path class="cls-1" d="M153.89,152.5H40.98c-9.28,0-16.81-7.53-16.81-16.81h0c0-9.28-24.17-11.69-24.17-26.81v-12.31l8.5,10.61c.96,1.19,2.08,2.24,3.34,3.12,8.05,5.58,17.62,8.59,27.46,8.59h114.6c9.28,0,16.81,7.53,16.81,16.81h0c0,9.28-7.53,16.81-16.81,16.81Z"/><path class="cls-3" d="M169.48,118.09c.06-.36.02-.75-.19-1.12l-9.14-15.83c-.64-1.11-2.24-1.11-2.89,0l-8.09,14.02c-1.01,1.16-1.63,2.68-1.63,4.35v8.83c0,3.66,2.97,6.63,6.63,6.63h8.83c3.66,0,6.63-2.97,6.63-6.63v-8.83c0-.49-.06-.96-.16-1.42Z"/><rect class="cls-3" x="63.37" y="116.27" width="22.09" height="15.46" rx="6.63" ry="6.63"/><circle class="cls-3" cx="83.78" cy="86.54" r="22.34"/><circle class="cls-3" cx="127.96" cy="86.54" r="22.34"/><circle class="cls-1" cx="127.96" cy="86.54" r="3.78"/><circle class="cls-1" cx="83.78" cy="86.54" r="3.78"/><path class="cls-3" d="M63.46,119.32c.06-.36.02-.75-.19-1.12l-9.14-15.83c-.64-1.11-2.24-1.11-2.89,0l-8.09,14.02c-1.01,1.16-1.63,2.68-1.63,4.35v8.83c0,3.66,2.97,6.63,6.63,6.63h8.83c3.66,0,6.63-2.97,6.63-6.63v-8.83c0-.49-.06-.96-.16-1.42Z"/><rect class="cls-3" x="84.95" y="116.27" width="22.09" height="15.46" rx="6.63" ry="6.63"/><path class="cls-3" d="M148.11,168.47l-21.02-15.8-21.22,15.8v-49.94c0-4.01,3.25-7.26,7.26-7.26h27.65c4.05,0,7.33,3.28,7.33,7.33v49.87Z"/></g></svg>