<svg xmlns="http://www.w3.org/2000/svg" version="1.1" xmlns:xlink="http://www.w3.org/1999/xlink" width="155.66" height="156.86"><svg id="SvgjsSvg1042" xmlns="http://www.w3.org/2000/svg" viewBox="0 0 155.66 156.86"><defs><style>.cls-1{fill:#ffbbd7;}.cls-2{fill:#ffc0dd;}.cls-3{fill:#ff0068;}.cls-4{fill:#d80b68;}</style></defs><g id="SvgjsG1041"><path class="cls-1" d="M103.3,35.99c.12,1.12,1.41,1.68,2.31,1.02l6.56-4.81-9.76-4.29.89,8.08Z"></path><path class="cls-1" d="M17.09,32.69l5.71,3.28c1.13.32,2.19-.71,1.9-1.85l-2-7.91c-1.8,1.6-3.93,3.53-5.6,6.47Z"></path><path class="cls-1" d="M10.83,45.77l4.95-.02c1.17-.05,1.85-1.36,1.21-2.35l-2.87-4.63c-.04.1-3.3,7-3.3,7Z"></path><path class="cls-1" d="M30.36,22.29l3.29,6.99c.48,1.02,1.88,1.13,2.52.21l4.64-6.68-6.26-.53c-1.48-.12-2.86-.13-4.18,0Z"></path><path class="cls-1" d="M86.88,33.74c.48,1.02,1.88,1.13,2.52.21l4.64-6.68-10.62-.89,3.46,7.36Z"></path><path class="cls-1" d="M51.39,30.77c.48,1.02,1.88,1.13,2.52.21l4.64-6.68-10.62-.89,3.46,7.36Z"></path><path class="cls-1" d="M69.13,32.25c.48,1.02,1.88,1.13,2.52.21l4.64-6.68-10.62-.89,3.46,7.36Z"></path><path class="cls-4" d="M155.66,82.11v-19.75s0,0,0,0v-25.75c0-20.22-16.39-36.61-36.61-36.61H28.75C17.34,0,8.09,9.25,8.09,20.67v30.18c0,.37.01.73.03,1.09l5.86-12.78c5.77-13.36,12.23-16.6,20.74-16.6l64.49,5.55c8.74,0,15.82,7.08,15.82,15.82v15c0,8.66-7.02,15.68-15.68,15.68h-62.93c-11.41,0-20.67,9.25-20.67,20.67v25.93h-2.11c-1.84,0-3.33,1.49-3.33,3.33v25.92c0,3.48,2.82,6.31,6.31,6.31h26.64c3.36,0,6.08-2.72,6.08-6.08v-19.44h4.5v19.44c0,3.36,2.72,6.08,6.08,6.08h26.87c3.36,0,6.08-2.72,6.08-6.08v-19.44h3.59v4.86c.79.8,10.2,10.21,16.05,16.06,2.93,2.93,6.89,4.56,11.03,4.56h11.27s20.86-20.67,20.86-20.67h0v-5.12c0-4.22-1.68-8.26-4.66-11.25l-10.37-10.37,6.39-6.39c5.53-5.53,8.63-13.03,8.63-20.84Z"></path><path class="cls-2" d="M29.94,104.76c-11.99,0-21.74-9.75-21.74-21.74s9.75-21.74,21.74-21.74,21.74,9.75,21.74,21.74-9.75,21.74-21.74,21.74Z"></path><path class="cls-4" d="M29.94,65.87c9.46,0,17.15,7.69,17.15,17.15s-7.69,17.15-17.15,17.15-17.15-7.69-17.15-17.15,7.69-17.15,17.15-17.15M29.94,56.7c-14.54,0-26.32,11.78-26.32,26.32s11.78,26.32,26.32,26.32,26.32-11.78,26.32-26.32-11.78-26.32-26.32-26.32h0Z"></path><path class="cls-2" d="M73.34,104.76c-11.99,0-21.74-9.75-21.74-21.74s9.75-21.74,21.74-21.74,21.74,9.75,21.74,21.74-9.75,21.74-21.74,21.74Z"></path><path class="cls-4" d="M73.34,65.87c9.46,0,17.15,7.69,17.15,17.15s-7.69,17.15-17.15,17.15-17.15-7.69-17.15-17.15,7.69-17.15,17.15-17.15M73.34,56.7c-14.54,0-26.32,11.78-26.32,26.32s11.78,26.32,26.32,26.32,26.32-11.78,26.32-26.32-11.78-26.32-26.32-26.32h0Z"></path><circle class="cls-3" cx="73.34" cy="83.02" r="4.46"></circle><circle class="cls-3" cx="29.94" cy="83.02" r="4.46"></circle><path class="cls-3" d="M17.77,88.7h66.92c7.02,0,12.72,5.7,12.72,12.72v16.92c0,7.93-6.43,14.36-14.36,14.36H18.66c-7.93,0-14.36-6.43-14.36-14.36v-16.17c0-7.44,6.04-13.47,13.47-13.47Z"></path><path class="cls-1" d="M91.26,111.77c-.02-.28-.06-.59-.22-.87l-6.92-12.3c-.49-.86-1.7-.86-2.18,0l-6.12,10.89c-.36.42-.65.9-.86,1.43-.81-1.72-2.52-2.9-4.51-2.9h-6.69c-2.07,0-3.84,1.29-4.61,3.12-.77-1.84-2.54-3.12-4.61-3.12h-6.69c-2.14,0-3.97,1.38-4.69,3.33-.72-1.94-2.54-3.33-4.69-3.33h-6.69c-2.07,0-3.85,1.29-4.62,3.13-.04-.09-.09-.18-.13-.25l-6.92-12.3c-.49-.86-1.7-.86-2.18,0l-6.92,12.3c-.17.3-.3.63-.29.92-.02.43-.03.88-.03,1.35v6.86c0,2.84,2.25,5.15,5.02,5.15h6.69c2.14,0,3.97-1.38,4.69-3.33.72,1.94,2.54,3.33,4.69,3.33h6.69c2.14,0,3.97-1.38,4.69-3.33.72,1.94,2.54,3.33,4.69,3.33h6.69c2.07,0,3.84-1.29,4.61-3.12.77,1.84,2.54,3.12,4.61,3.12h6.69c2.1,0,3.89-1.32,4.64-3.2.81,1.71,2.52,2.9,4.51,2.9h6.69c2.77,0,5.02-2.31,5.02-5.15v-6.86c0-.38-.02-.75-.04-1.1Z"></path><circle class="cls-2" cx="57.61" cy="97.95" r="4.46"></circle><circle class="cls-2" cx="44.2" cy="97.95" r="4.46"></circle><path class="cls-3" d="M9.78,113.47h83.22c5.26,0,9.53,4.27,9.53,9.53v6.39c0,5.41-4.4,9.81-9.81,9.81H9.62C4.31,139.2,0,134.89,0,129.58v-6.33C0,117.85,4.38,113.47,9.78,113.47Z"></path><path class="cls-1" d="M39.92,150.33c-.55-.95-1.93-.95-2.48,0l-3.15,5.45-3.15-5.45c-.55-.95-1.93-.95-2.48,0l-3.15,5.45-3.15-5.45c-.55-.95-1.93-.95-2.48,0l-3.71,6.43c.34.06.69.1,1.06.1h26.45l-3.77-6.53Z"></path><path class="cls-1" d="M83.32,150.33c-.55-.95-1.93-.95-2.48,0l-3.15,5.45-3.15-5.45c-.55-.95-1.93-.95-2.48,0l-3.15,5.45-3.15-5.45c-.55-.95-1.93-.95-2.48,0l-3.71,6.43c.34.06.69.1,1.05.1h26.45l-3.77-6.53Z"></path><path class="cls-1" d="M147.7,134.53c-1.08-.29-2.07.7-1.78,1.78l1.66,6.19-6.19-1.66c-1.08-.29-2.07.7-1.78,1.78l1.66,6.19-6.19-1.66c-1.08-.29-2.07.7-1.78,1.78l1.96,7.3c.29-.2.57-.43.83-.69l6.31-6.31s0,0,0,0l6.31-6.31.09-.09,6.31-6.31-7.41-1.99Z"></path></g></svg><style>@media (prefers-color-scheme: light) { :root { filter: none; } }
@media (prefers-color-scheme: dark) { :root { filter: none; } }
</style></svg>