<?xml version="1.0" encoding="UTF-8"?>
<svg id="Layer_2" data-name="Layer 2" xmlns="http://www.w3.org/2000/svg" viewBox="0 0 679.18 693.59">
  <g id="Layer_1-2" data-name="Layer 1">
    <g id="FJHste.tif">
      <g>
        <path d="M214.09,687.43l-20.21,2.11-24.34-26.21-22.98,25.99-19.64-.76-19.32-25.41-16.64,22.52-17.98,2.54-24.41-18.66-5.03-10.22v-45.39s-30.8,0-30.8,0l-12.75-12.79v-92.79s4.92-4.95,4.92-4.95l-.84-54.36,10.84-12.82,21.64-3.25c-29.74-49.18-18.42-112.75,26.17-148.06,38.83-30.74,93.46-31.06,132.57-.58,10,7.8,18.56,17.17,25.78,28.19,8.7-13.41,19.29-24.21,32-32.69,37.38-25.16,86.66-24.11,122.95,2.55,14.87,10.85,26.42,24.84,34.87,41.72l62.03-126.68L138.2,126.55l-80.42,114.85-23.2-7.36,1.77-175.21,5.96-3.57.26-7.34L117,1.92l3.42,1.61,3.19-3.53,442.95,5.63,2.45,3.48,16-1.64,91.07,117.4-1.12,4.67,4.21,3.18v283.23s-5.62,2.16-5.62,2.16l1.76,6.76-60.91,63.99,49.17,35.35,5.21,8.81,6.4,50.78-12.17,14.29-31.73,1.09c-.34.16-.97.8-1.08,1.09l7.15,27.82-11.45,15.88-41.9,2.92,8.34,25.15-10.68,16.68-46.1,4.86-8.72-2.32-109.45-77.23c-1.35-.96-2.11.15-2.11.71v39.45s-4.88,10.18-4.88,10.18l-24.57,18.8-16.81-1.02-24.07-23.93-12.01,23.45-20.87,2.65-23.01-26.04-24.44,26.28-20.2-2.15-13.68-22.75-16.67,27.76ZM478.15,172.45l68.22-141.44-408.65-5.2,6.82,76.03,333.6,70.61ZM117.47,87.39l-4.76-52.82-39.59,24.47,44.35,28.36ZM644.5,125.87l-66.99-86.44-59.73,124,126.72-37.56ZM60.82,192.59l53.69-76.68-52.65-33.73-.63,53.57-.41,56.84ZM653.27,377.19l.04-227.25-138.4,40.98,138.36,186.27ZM635.22,395.84l-139.26-187.54-68.41,139.88,207.66,47.66ZM134.81,418.47l71.51-10.61c.45-.78,1.39-2.55,1.19-3.3-5.51-20.39-5.58-41.53.13-61.99-7.77-20.62-22.9-37.53-42.52-47.14-32.97-16.05-71.81-8.1-96.45,18.67-29.2,31.73-31.02,80.72-3.91,114.72l39.09-5.77,5.21-10.58,22.83.37,2.93,5.63ZM330.85,405.07l4.15,12.22,47.57,4.26c23.56-36.65,16.82-85.42-15.71-113.89-34.13-29.87-84.79-26.63-115.23,6.81-23.01,25.27-29.24,62.42-15.67,93.98l67.37,5.99,3.53-9.67,24,.3ZM554.5,639.23l11.19-16.68,42.12-2.92c.15-.01.77-.18.79-.2.01-.02-.03-.72-.14-1.15l-7.17-28.14,11.89-15.9,34.9-1.2-3.96-31.4-56.14-40.26-166.12-119.31c-1.21,14.69-4.87,28.51-11.31,41.76l4.86.78,11.4,12.46v59.66s11.63,11.33,11.63,11.33l2.44,91.25,96.83,68.33,25.37-2.65-8.56-25.78ZM641.35,423.5l-173.02-39.59,125.07,89.91,47.95-50.31ZM274.49,495.73l20.09-56.75-78.94-7.09-70.32,10.45,24.02,53.43,105.15-.03ZM400.94,495.75l.02-47.26-57.3-5.11,17.53,52.37h39.75ZM334.4,495.68l-16.01-48.07-17.07,48.12,33.08-.05ZM141.46,495.69l-21.51-47.8-23.44,47.85,44.95-.05ZM68.25,495.74l22.12-45.26-60.65,8.97.61,36.3h37.92ZM416.33,587.95l-1.94-67.62H24.64s-.05,67.62-.05,67.62h391.74ZM159.28,635.33l18.86.07,22.35,24.35,7.05-13.33-.02-32.48H68.24s.02,39.25.02,39.25l9.32,6.86,19.1-26,20.34.06,20.24,26.57,22.02-25.36ZM331.12,630.52l20.29-3.14,28.64,28.46,10.63-8.1v-33.81s-140.46,0-140.46,0l.11,27.22,7.98,13.14,22.36-24.05,19.01.25,19.87,22.46,11.58-22.45Z" fill="#e41064"/>
        <polygon points="478.15 172.45 144.54 101.84 137.72 25.82 546.37 31.02 478.15 172.45" fill="#ffa4c8"/>
        <path d="M554.5,639.23l8.56,25.78-25.37,2.65-96.83-68.33-2.44-91.25-11.61-11.33v-59.66s-11.41-12.46-11.41-12.46l-4.86-.78c6.44-13.25,10.09-27.07,11.31-41.76l166.12,119.31,56.14,40.26,3.96,31.4-34.9,1.2-11.89,15.9,7.17,28.14c.11.43.16,1.13.14,1.15-.02.02-.63.19-.79.2l-42.12,2.92-11.19,16.68Z" fill="#ffa4c8"/>
        <polygon points="416.33 587.95 24.59 587.95 24.64 520.33 414.39 520.33 416.33 587.95" fill="#ffa4c8"/>
        <polygon points="635.22 395.84 427.55 348.18 495.96 208.3 635.22 395.84" fill="#ffa4c8"/>
        <polygon points="653.27 377.19 514.91 190.92 653.31 149.94 653.27 377.19" fill="#ffa4c8"/>
        <path d="M134.81,418.47l-2.93-5.63-22.83-.37-5.21,10.58-39.09,5.77c-27.11-34-25.29-82.99,3.91-114.72,24.64-26.77,63.48-34.72,96.45-18.67,19.62,9.61,34.76,26.52,42.52,47.14-5.71,20.46-5.64,41.6-.13,61.99.2.75-.74,2.52-1.19,3.3l-71.51,10.61ZM124.71,318.34c-21.81,2.64-36.69,22.55-34.03,43.55s21.96,36.33,43.04,33.96,37.02-21.99,34.42-43.42c-2.57-21.11-21.67-36.72-43.42-34.08Z" fill="#fffff8"/>
        <path d="M330.85,405.07l-24-.3-3.53,9.67-67.37-5.99c-13.57-31.56-7.33-68.71,15.67-93.98,30.45-33.44,81.11-36.67,115.23-6.81,32.53,28.47,39.27,77.23,15.71,113.89l-47.57-4.26-4.15-12.22ZM282.6,312.81c-21.87,3.06-36.45,23.34-33.19,44.56,3.22,20.99,22.88,35.66,43.92,32.72s36.2-22.61,33.32-43.8c-2.86-21.13-22.29-36.52-44.05-33.48Z" fill="#fffff8"/>
        <polygon points="274.49 495.73 169.34 495.77 145.32 442.34 215.64 431.89 294.58 438.98 274.49 495.73" fill="#ffa4c8"/>
        <polygon points="644.5 125.87 517.79 163.43 577.51 39.43 644.5 125.87" fill="#ffa4c8"/>
        <polygon points="641.35 423.5 593.4 473.82 468.33 383.91 641.35 423.5" fill="#ffa4c8"/>
        <polygon points="159.28 635.33 137.26 660.68 117.01 634.11 96.67 634.05 77.57 660.05 68.25 653.19 68.24 613.93 207.52 613.93 207.54 646.42 200.5 659.74 178.14 635.4 159.28 635.33" fill="#ffa4c8"/>
        <polygon points="331.12 630.52 319.55 652.97 299.68 630.5 280.67 630.25 258.3 654.29 250.33 641.15 250.22 613.93 390.68 613.93 390.69 647.74 380.06 655.84 351.42 627.38 331.12 630.52" fill="#ffa4c8"/>
        <polygon points="60.82 192.59 61.23 135.75 61.86 82.18 114.51 115.91 60.82 192.59" fill="#ffa4c8"/>
        <polygon points="400.94 495.75 361.19 495.75 343.66 443.38 400.96 448.49 400.94 495.75" fill="#ffa4c8"/>
        <polygon points="68.25 495.74 30.33 495.75 29.72 459.46 90.37 450.48 68.25 495.74" fill="#ffa4c8"/>
        <polygon points="117.47 87.39 73.12 59.03 112.71 34.56 117.47 87.39" fill="#ffa4c8"/>
        <polygon points="141.46 495.69 96.51 495.74 119.94 447.89 141.46 495.69" fill="#fffff8"/>
        <polygon points="334.4 495.68 301.33 495.73 318.4 447.61 334.4 495.68" fill="#fffff8"/>
        <path d="M124.71,318.34c21.76-2.64,40.85,12.97,43.42,34.08,2.61,21.43-12.86,40.99-34.42,43.42s-40.34-12.69-43.04-33.96,12.22-40.9,34.03-43.55ZM126.2,343.97c-7.63,1.82-11.65,9.42-9.9,16.38,1.83,7.26,9.11,11.59,16.31,9.84s11.54-8.92,10.01-15.9c-1.61-7.33-8.7-12.16-16.42-10.31Z" fill="#e41064"/>
        <path d="M282.6,312.81c21.76-3.04,41.19,12.35,44.05,33.48,2.87,21.2-12.12,40.84-33.32,43.8s-40.71-11.73-43.92-32.72c-3.25-21.22,11.32-41.5,33.19-44.56ZM287.09,337.97c-7.89.55-13.26,7.27-12.56,14.81.67,7.13,7.06,12.78,14.64,12.11,7.07-.62,12.8-6.85,12.27-14.44-.49-6.96-6.56-13.03-14.35-12.49Z" fill="#e41064"/>
        <path d="M126.2,343.97c7.72-1.85,14.81,2.98,16.42,10.31,1.54,6.99-2.93,14.18-10.01,15.9s-14.48-2.58-16.31-9.84c-1.75-6.96,2.27-14.56,9.9-16.38Z" fill="#ffa4c8"/>
        <path d="M287.09,337.97c7.79-.55,13.86,5.52,14.35,12.49.54,7.58-5.2,13.81-12.27,14.44-7.59.67-13.98-4.98-14.64-12.11-.7-7.54,4.67-14.26,12.56-14.81Z" fill="#ffa4c8"/>
      </g>
    </g>
  </g>
</svg>